# xmcd
#
# Track frame offsets: 
#        150
#        17528
#        41448
#        57000
#        79126
#        99827
#        120781
#        139152
#        159654
#        177280
#        190671
#        209242
#        237636
#
# Disc length: 3354 seconds
#
# Revision: 1
# Processed by: cddbd v1.5.2PL0 Copyright (c) Steve Scherf et al.
# Submitted via: ExactAudioCopy v1.0b4
#
DISCID=a50d180d
DTITLE=James Harman - Fineprint
DYEAR=2018
DGENRE=Blues
TTITLE0=Fineprint
TTITLE1=In With The Grief...In With The Gravy
TTITLE2=Come On And Dance With Me
TTITLE3=At The Flophouse
TTITLE4=What 'cha Gonna Do 'bout Me #1
TTITLE5=What 'cha Gonna Do 'bout Me #2
TTITLE6=A Busy Man (Where This Old World Turns It's Back On You)
TTITLE7=Memory Foam Mattress
TTITLE8=The Fruit Of The Poisoned Tree
TTITLE9=Slam On The Brakes
TTITLE10=Familiarity Breeds Contempt, But Absence Makes The Heart Grow
TTITLE10=Fonder
TTITLE11=Glide
TTITLE12=A Ticket To The Circus
EXTD=
EXTT0=
EXTT1=
EXTT2=
EXTT3=
EXTT4=
EXTT5=
EXTT6=
EXTT7=
EXTT8=
EXTT9=
EXTT10=
EXTT11=
EXTT12=
PLAYORDER=
